<svg xmlns="http://www.w3.org/2000/svg" viewBox="0 0 240 240">
  <!-- Nền trong suốt -->
  <rect width="240" height="240" fill="none"/>
  
  <!-- Đường kẻ dưới -->
  <path d="M40,190 L80,190" stroke="#cb4b57" stroke-width="4" stroke-linecap="round" stroke-dasharray="1,7"/>
  <path d="M160,190 L200,190" stroke="#cb4b57" stroke-width="4" stroke-linecap="round" stroke-dasharray="1,7"/>
  <line x1="80" y1="190" x2="160" y2="190" stroke="#cb4b57" stroke-width="4" stroke-linecap="round"/>
  
  <!-- Điểm trang trí -->
  <circle cx="180" cy="60" r="6" fill="#fbc6c1" stroke="none"/>
  <circle cx="150" cy="150" r="4" fill="#cb4b57" stroke="none"/>
  <circle cx="60" cy="150" r="4" fill="#cb4b57" stroke="none"/>
  <circle cx="180" cy="130" r="3" fill="#cb4b57" stroke="none"/>
  
  <!-- Áo phông -->
  <path d="M65,70 L90,50 L150,50 L175,70 L175,170 L65,170 Z" fill="#ffecec" stroke="#cb4b57" stroke-width="6" stroke-linejoin="round" stroke-linecap="round"/>
  
  <!-- Cổ áo -->
  <path d="M100,50 Q120,60 140,50" stroke="#cb4b57" stroke-width="6" stroke-linecap="round" fill="none"/>
  
  <!-- Tay áo -->
  <path d="M65,70 L45,90" stroke="#cb4b57" stroke-width="6" stroke-linecap="round"/>
  <path d="M175,70 L195,90" stroke="#cb4b57" stroke-width="6" stroke-linecap="round"/>
  
  <!-- Chi tiết áo -->
  <path d="M85,110 L155,110" stroke="#fbc6c1" stroke-width="5" stroke-linecap="round"/>
  <path d="M85,130 L155,130" stroke="#fbc6c1" stroke-width="5" stroke-linecap="round"/>
  <path d="M85,150 L155,150" stroke="#fbc6c1" stroke-width="5" stroke-linecap="round"/>
</svg>