<svg xmlns="http://www.w3.org/2000/svg" viewBox="0 0 240 240">
  <!-- Nền trong suốt -->
  <rect width="240" height="240" fill="none"/>
  
  <!-- Đường kẻ dưới -->
  <path d="M40,190 L80,190" stroke="#5d594e" stroke-width="4" stroke-linecap="round" stroke-dasharray="1,7"/>
  <path d="M160,190 L200,190" stroke="#5d594e" stroke-width="4" stroke-linecap="round" stroke-dasharray="1,7"/>
  <line x1="80" y1="190" x2="160" y2="190" stroke="#5d594e" stroke-width="4" stroke-linecap="round"/>
  
  <!-- Điểm trang trí -->
  <circle cx="180" cy="60" r="6" fill="#c8c4b8" stroke="none"/>
  <circle cx="150" cy="100" r="4" fill="#5d594e" stroke="none"/>
  <circle cx="60" cy="150" r="4" fill="#5d594e" stroke="none"/>
  <circle cx="130" cy="50" r="3" fill="#5d594e" stroke="none"/>
  
  <!-- Quần cargo -->
  <path d="M90,60 L150,60 L160,80 L145,180 L120,180 L95,180 L80,80 Z" fill="#d8d4cb" stroke="#5d594e" stroke-width="6" stroke-linejoin="round" stroke-linecap="round"/>
  
  <!-- Đường may giữa -->
  <path d="M120,60 L120,180" stroke="#5d594e" stroke-width="2" stroke-dasharray="2,2"/>
  
  <!-- Túi quần hông -->
  <path d="M100,85 L110,85" stroke="#5d594e" stroke-width="3" stroke-linecap="round"/>
  <path d="M130,85 L140,85" stroke="#5d594e" stroke-width="3" stroke-linecap="round"/>
  
  <!-- Túi cargo bên -->
  <rect x="75" y="110" width="20" height="25" rx="3" fill="#e8e6e0" stroke="#5d594e" stroke-width="3"/>
  <rect x="145" y="110" width="20" height="25" rx="3" fill="#e8e6e0" stroke="#5d594e" stroke-width="3"/>
  
  <!-- Túi cargo dưới -->
  <rect x="90" y="145" width="15" height="20" rx="3" fill="#e8e6e0" stroke="#5d594e" stroke-width="3"/>
  <rect x="135" y="145" width="15" height="20" rx="3" fill="#e8e6e0" stroke="#5d594e" stroke-width="3"/>
</svg>